<?xml version="1.0" encoding="UTF-8" standalone="no"?>
<!DOCTYPE svg PUBLIC "-//W3C//DTD SVG 1.1//EN" "http://www.w3.org/Graphics/SVG/1.1/DTD/svg11.dtd">
<svg width="100%" height="100%" viewBox="0 0 1126 1126" version="1.1" xmlns="http://www.w3.org/2000/svg" xmlns:xlink="http://www.w3.org/1999/xlink" xml:space="preserve" xmlns:serif="http://www.serif.com/" style="fill-rule:evenodd;clip-rule:evenodd;stroke-linecap:round;stroke-linejoin:round;stroke-miterlimit:1.5;">
    <g>
        <g>
            <clipPath id="_clip1">
                <circle cx="562.507" cy="562.503" r="562.507"/>
            </clipPath>
            <g clip-path="url(#_clip1)">
                <g transform="matrix(2.33947,0,0,2.33947,-920.86,-528.42)">
                    <circle cx="634.061" cy="466.312" r="240.442" style="fill:rgb(107,107,107);"/>
                </g>
                <g>
                    <g transform="matrix(5.28995e-17,0.863915,-0.863915,5.28995e-17,994.795,555.779)">
                        <path d="M663.638,121.725L991.566,311.054L991.566,689.712L663.638,879.041L335.711,689.712L335.711,311.054L663.638,121.725Z" style="fill:rgb(82,87,100);"/>
                    </g>
                    <g transform="matrix(5.28995e-17,0.863915,-0.863915,5.28995e-17,1485.49,-294.125)">
                        <path d="M663.638,121.725L991.566,311.054L991.566,689.712L663.638,879.041L335.711,689.712L335.711,311.054L663.638,121.725Z" style="fill:rgb(64,68,79);"/>
                    </g>
                    <g transform="matrix(-5.28995e-17,0.863915,0.863915,5.28995e-17,-360.474,-294.125)">
                        <path d="M663.638,121.725L991.566,311.054L991.566,689.712L663.638,879.041L335.711,689.712L335.711,311.054L663.638,121.725Z" style="fill:rgb(71,75,86);"/>
                    </g>
                    <g transform="matrix(5.28995e-17,0.863915,-0.863915,5.28995e-17,994.795,-10.8239)">
                        <path d="M663.638,121.725L991.566,311.054L991.566,689.712L663.638,879.041L335.711,689.712L335.711,311.054L663.638,121.725Z" style="fill:rgb(96,102,118);"/>
                    </g>
                    <g transform="matrix(5.28995e-17,0.863915,-0.863915,5.28995e-17,994.795,-577.427)">
                        <path d="M663.638,121.725L991.566,311.054L991.566,689.712L663.638,879.041L335.711,689.712L335.711,311.054L663.638,121.725Z" style="fill:rgb(88,93,107);"/>
                    </g>
                    <g transform="matrix(5.28995e-17,0.863915,-0.863915,5.28995e-17,1485.49,272.478)">
                        <path d="M663.638,121.725L991.566,311.054L991.566,689.712L663.638,879.041L335.711,689.712L335.711,311.054L663.638,121.725Z" style="fill:rgb(131,136,153);"/>
                    </g>
                    <g transform="matrix(-5.28995e-17,0.863915,0.863915,5.28995e-17,-360.474,272.478)">
                        <path d="M663.638,121.725L991.566,311.054L991.566,689.712L663.638,879.041L335.711,689.712L335.711,311.054L663.638,121.725Z" style="fill:rgb(103,109,127);"/>
                    </g>
                </g>
                <g>
                    <g transform="matrix(3.12987,0,0,3.12987,-849.696,-594.663)">
                        <circle cx="398.943" cy="279.202" r="23.963" style="fill:white;"/>
                    </g>
                    <g transform="matrix(3.12987,0,0,3.12987,-849.696,-28.0601)">
                        <circle cx="398.943" cy="279.202" r="23.963" style="fill:white;"/>
                    </g>
                    <g transform="matrix(3.12987,0,0,3.12987,-522.567,-594.663)">
                        <circle cx="398.943" cy="279.202" r="23.963" style="fill:white;"/>
                    </g>
                    <g transform="matrix(3.12987,0,0,3.12987,-522.567,-28.0601)">
                        <circle cx="398.943" cy="279.202" r="23.963" style="fill:white;"/>
                    </g>
                    <g transform="matrix(3.12987,0,0,3.12987,-359.003,-311.361)">
                        <circle cx="398.943" cy="279.202" r="23.963" style="fill:white;"/>
                    </g>
                    <g transform="matrix(3.12987,0,0,3.12987,-1013.26,-311.361)">
                        <circle cx="398.943" cy="279.202" r="23.963" style="fill:white;"/>
                    </g>
                    <path d="M235.378,563L398.943,279.202" style="fill:none;stroke:white;stroke-width:20px;"/>
                    <g transform="matrix(1,0,0,1,490.692,-283.798)">
                        <path d="M235.378,563L398.943,279.202" style="fill:none;stroke:white;stroke-width:20px;"/>
                    </g>
                    <path d="M398.943,279.202L726.071,279.202" style="fill:none;stroke:white;stroke-width:20px;"/>
                    <path d="M726.071,279.202L889.635,562.503" style="fill:none;stroke:white;stroke-width:20px;"/>
                    <g transform="matrix(1,0,0,1,-490.692,-279.202)">
                        <path d="M726.071,279.202L889.635,562.503" style="fill:none;stroke:white;stroke-width:20px;"/>
                    </g>
                    <path d="M889.635,562.503L726.071,845.804" style="fill:none;stroke:white;stroke-width:20px;"/>
                    <g transform="matrix(1,0,0,1,-490.692,283.301)">
                        <path d="M889.635,562.503L726.071,845.804" style="fill:none;stroke:white;stroke-width:20px;"/>
                    </g>
                    <path d="M726.071,845.804L398.943,845.804" style="fill:none;stroke:white;stroke-width:20px;"/>
                    <g transform="matrix(1,0,0,1,-490.692,-282.804)">
                        <path d="M726.071,845.804L398.943,845.804" style="fill:none;stroke:white;stroke-width:20px;"/>
                    </g>
                    <path d="M398.943,845.804L235.378,563" style="fill:none;stroke:white;stroke-width:20px;"/>
                    <g transform="matrix(1,0,0,1,490.692,280.196)">
                        <path d="M398.943,845.804L235.378,563" style="fill:none;stroke:white;stroke-width:20px;"/>
                    </g>
                    <path d="M889.635,563L1126,562.503" style="fill:none;stroke:white;stroke-width:20px;"/>
                </g>
            </g>
        </g>
    </g>
</svg>
